<?xml version="1.0" encoding="UTF-8"?><svg id="Layer_1" xmlns="http://www.w3.org/2000/svg" viewBox="0 0 600 600"><defs><style>.cls-1{fill:#fff;}</style></defs><path class="cls-1" d="M300,0C134.31,0,0,134.31,0,300s134.31,300,300,300,300-134.31,300-300S465.69,0,300,0ZM431.25,414.83c5.26-18.73,17.56-36.28,35.54-44.82,0,0,3.88-1.77,3.88-1.77,6.84-3.12,14.92-.11,18.05,6.74,3.81,8.04-1.53,17.84-10.29,19.13-.83.17-2.74.55-3.53.68-5.43,1.5-10.29,3.93-14.81,7.62-5.65,4.51-10.63,10.55-14.24,16.92-.27.49-.81,1.25-1.09,1.7-4.87,7.1-15.7,2.04-13.5-6.19ZM270.53,76.6l115.07,138.89c6.17,7.45,5.13,18.48-2.31,24.65-7.45,6.17-18.48,5.13-24.65-2.31-.58-.62-106.35-145.8-106.96-146.57-8.61-12.72,8.58-26.15,18.85-14.66ZM254.11,212.59l143.34,174c6.15,7.46,5.08,18.5-2.38,24.64-7.71,6.39-19.35,4.93-25.25-3.16l-133.36-181.76c-8.11-11.89,8.01-24.55,17.65-13.73ZM234.11,414.67c5.24-18.14,17.02-34.86,34.07-43.8,1.27-.62,4.5-2.03,5.81-2.63,16.75-6.72,27.3,16.8,11.12,24.84-2.48,1.16-5.47,1.23-8.02,2.12-4.96,1.5-9.36,3.96-13.5,7.37-5.56,4.54-10.44,10.57-13.97,16.93-.26.5-.87,1.35-1.15,1.8-5.2,7.61-16.78,2.16-14.36-6.63ZM77.59,241.15c-8.19-12.16,8.2-24.97,18.04-14.03l115.47,138.58c6.19,7.43,5.19,18.47-2.24,24.66-7.72,6.49-19.5,5.01-25.38-3.17,0,0-105.89-146.03-105.89-146.03ZM130.46,412.23c-17.62-3.23-14.01-28.56,3.82-26.73,12.29,3.36,22.71,12.13,29.41,22.73.9,1.41,1.65,2.9,2.45,4.33,4.53,8.46-5.92,16.66-13.05,10.42-2.02-1.82-3.95-3.82-6.22-5.3-4.85-3.31-10.69-5.75-16.54-5.55-.02.02-.17.02.13.1ZM500.62,465.42c-5.26,6.36-10.85,12.51-16.77,18.43-49.11,49.11-114.4,76.15-183.85,76.15s-134.74-27.04-183.85-76.15c-5.91-5.91-11.51-12.06-16.77-18.43-3.78-4.57-.54-11.47,5.39-11.47h390.46c5.93,0,9.16,6.9,5.39,11.47ZM525.42,250.5c-7.99,7.21-20.97,5.28-26.56-3.89-4.86-7.46-27.99-43.05-32.31-49.68l-3.24-4.99c-.92-1.32-2.38-3.26-3.37-4.59-4.86-6.51-9.77-13.33-14.2-20.58-3.01-4.93-1.46-11.36,3.47-14.37,4.5-2.75,10.28-1.69,13.53,2.28,6.02,7.28,13.25,14.23,20.08,21.17,2.53,2.85,9.39,10.6,12.01,13.56l32.12,36.3c6.43,7.26,5.75,18.36-1.51,24.79Z"/></svg>