<?xml version="1.0" encoding="UTF-8"?><svg id="Layer_1" xmlns="http://www.w3.org/2000/svg" viewBox="0 0 600 600"><path d="M300,0C134.31,0,0,134.31,0,300s134.31,300,300,300,300-134.31,300-300S465.69,0,300,0ZM431.25,414.83c5.26-18.73,17.56-36.28,35.54-44.82,0,0,3.88-1.77,3.88-1.77,6.84-3.12,14.92-.11,18.05,6.74,3.81,8.04-1.53,17.84-10.29,19.13-.83.17-2.74.55-3.53.68-5.43,1.5-10.29,3.93-14.81,7.62-5.65,4.51-10.63,10.55-14.24,16.92-.27.49-.81,1.25-1.09,1.7-4.87,7.1-15.7,2.04-13.5-6.19ZM268.77,77.91l114.07,139.67c4.72,5.78,3.86,14.28-1.92,19-5.94,4.88-14.84,3.76-19.4-2.42l-107.3-144.94c-6.75-9.81,6.61-20.29,14.54-11.31ZM252.49,213.8l142.2,174.89c4.7,5.79,3.83,14.29-1.96,19-5.93,4.85-14.8,3.74-19.35-2.42l-134.5-180.88c-6.34-9.18,6.15-19.04,13.61-10.59ZM234.11,414.67c5.24-18.14,17.02-34.86,34.07-43.8,1.27-.62,4.5-2.03,5.81-2.63,16.75-6.72,27.3,16.8,11.12,24.84-2.48,1.16-5.47,1.23-8.02,2.12-4.96,1.5-9.36,3.96-13.5,7.37-5.56,4.54-10.44,10.57-13.97,16.93-.26.5-.87,1.35-1.15,1.8-5.2,7.61-16.78,2.16-14.36-6.63ZM80.05,239.19c-6.43-9.38,6.32-19.39,13.92-10.82l114.38,139.43c4.73,5.77,3.89,14.28-1.88,19.01-5.94,4.91-14.88,3.78-19.44-2.43l-106.98-145.18ZM130.46,412.23c-17.62-3.23-14.01-28.56,3.82-26.73,12.29,3.36,22.71,12.13,29.41,22.73.9,1.41,1.65,2.9,2.45,4.33,4.53,8.46-5.92,16.66-13.05,10.42-2.02-1.82-3.95-3.82-6.22-5.3-4.85-3.31-10.69-5.75-16.54-5.55-.02.02-.17.02.13.1ZM500.62,465.42c-5.26,6.36-10.85,12.51-16.77,18.43-49.11,49.11-114.4,76.15-183.85,76.15s-134.74-27.04-183.85-76.15c-5.91-5.91-11.51-12.06-16.77-18.43-3.78-4.57-.54-11.47,5.39-11.47h390.46c5.93,0,9.16,6.9,5.39,11.47ZM522.64,246.82c-6.14,5.34-15.82,3.9-20.18-2.96-7.33-10.86-29.57-43.81-36.53-54.12-6.13-8.06-12.35-15.92-17.86-24.71-5.15-8.74,6.58-17.05,13.11-9.32,5.96,7.48,13.04,14.56,19.8,21.63,2.47,2.89,9.18,10.72,11.75,13.72l31.4,36.69c4.86,5.68,4.2,14.22-1.48,19.08Z"/></svg>